/* XPM */
static char *_3738_b6f97ccc60da4599b14ccde31a115cbc593e11d8949f3f8d0ae522e45f8f25ca[] = {
/* columns rows colors chars-per-pixel */
"64 64 45 1 ",
"  c #111111",
". c gray7",
"X c #131313",
"o c gray8",
"O c #151515",
"+ c #161616",
"@ c gray9",
"# c #181818",
"$ c #191919",
"% c gray10",
"& c #1B1B1B",
"* c gray11",
"= c #1D1D1D",
"- c #1E1E1E",
"; c gray12",
": c #202020",
"> c gray13",
", c #222222",
"< c #232323",
"1 c gray14",
"2 c #252525",
"3 c gray15",
"4 c #D8D8D8",
"5 c gray85",
"6 c #DADADA",
"7 c gray86",
"8 c #DDDDDD",
"9 c gray87",
"0 c #DFDFDF",
"q c gray88",
"w c #E1E1E1",
"e c #E2E2E2",
"r c gray89",
"t c #E4E4E4",
"y c gray90",
"u c #E6E6E6",
"i c #E7E7E7",
"p c gray91",
"a c #E9E9E9",
"s c #EAEAEA",
"d c gray92",
"f c #ECECEC",
"g c gray93",
"h c #EEEEEE",
"j c #EFEFEF",
/* pixels */
"&=*-****$=*:#=$-********************************-$=#:*=$****-*=&",
"*&=O::$--%*-%=-%********************************%-=%-*%--$::O=&*",
"*;%swqi$*uy9ti9syyyyyyyyyyyyyyyyyyyyyyyyyyyyyyyys9it9yu*$iqws%;*",
"*=%wutt*@wpsrerrrrrrrrrrrrrrrrrrrrrrrrrrrrrrrrrrrrerspw@*ttuw%=*",
"*=%wutt*2=+O<=-:================================:-=<O+=2*ttuw%=*",
"*;%swqi$O1&>O$%+&&&&&&&&&&&&&&&&&&&&&&&&&&&&&&&&+%$O>&1O$iqws%;*",
"*&=O::$-;%$ystusttttttttttttttttttttttttttttttttsutsy$%;-$::O=&*",
"&=*-****$<%r0ywrttttttttttttttttttttttttttttttttrwy0r%<$****-*=&",
":%;&+1$=$:+urrsqttttttttttttttttttttttttttttttttqsrru+:$=$1+&;%:",
"%@#d*%-*-&&dwf6htttttttttttttttttttttttttttttttth6fwd&&-*-%*d#@%",
"**%e*&=tyeeu0yf6tttttttttttttttttttttttttttttttt6fy0ueeyt=&*e%**",
">#-y*-Opi9hiy0efttttttttttttttttttttttttttttttttfe0yih9ipO-*y-#>",
"@:oi&;>5rywr9fqttttttttttttttttttttttttttttttttttqf9rwyr5>;&io:@",
"--1r%+;dyrprhewqttttttttttttttttttttttttttttttttqwehrpryd;+%r1--",
"#, e>=+eqiyw9tudttttttttttttttttttttttttttttttttdut9wyiqe+=>e ,#",
":O3q$=:ruryyyaqetttttttttttttttttttttttttttttttteqayyyrur:=$q3O:",
"**&y&=*tttttttttttttttttttttttttttttttttttttttttttttttttt*=&y&**",
"**&y&=*tttttttttttttttttttttttttttttttttttttttttttttttttt*=&y&**",
"**&y&=*tttttttttttttttttttttttttttttttttttttttttttttttttt*=&y&**",
"**&y&=*tttttttttttttttttttttttttttttttttttttttttttttttttt*=&y&**",
"**&y&=*tttttttttttttttttttttttttttttttttttttttttttttttttt*=&y&**",
"**&y&=*tttttttttttttttttttttttttttttttttttttttttttttttttt*=&y&**",
"**&y&=*tttttttttttttttttttttttttttttttttttttttttttttttttt*=&y&**",
"**&y&=*tttttttttttttttttttttttttttttttttttttttttttttttttt*=&y&**",
"**&y&=*tttttttttttttttttttttttttttttttttttttttttttttttttt*=&y&**",
"**&y&=*tttttttttttttttttttttttttttttttttttttttttttttttttt*=&y&**",
"**&y&=*tttttttttttttttttttttttttttttttttttttttttttttttttt*=&y&**",
"**&y&=*tttttttttttttttttttttttttttttttttttttttttttttttttt*=&y&**",
"**&y&=*tttttttttttttttttttttttttttttttttttttttttttttttttt*=&y&**",
"**&y&=*tttttttttttttttttttttttttttttttttttttttttttttttttt*=&y&**",
"**&y&=*tttttttttttttttttttttttttttttttttttttttttttttttttt*=&y&**",
"**&y&=*tttttttttttttttttttttttttttttttttttttttttttttttttt*=&y&**",
"**&y&=*tttttttttttttttttttttttttttttttttttttttttttttttttt*=&y&**",
"**&y&=*tttttttttttttttttttttttttttttttttttttttttttttttttt*=&y&**",
"**&y&=*tttttttttttttttttttttttttttttttttttttttttttttttttt*=&y&**",
"**&y&=*tttttttttttttttttttttttttttttttttttttttttttttttttt*=&y&**",
"**&y&=*tttttttttttttttttttttttttttttttttttttttttttttttttt*=&y&**",
"**&y&=*tttttttttttttttttttttttttttttttttttttttttttttttttt*=&y&**",
"**&y&=*tttttttttttttttttttttttttttttttttttttttttttttttttt*=&y&**",
"**&y&=*tttttttttttttttttttttttttttttttttttttttttttttttttt*=&y&**",
"**&y&=*tttttttttttttttttttttttttttttttttttttttttttttttttt*=&y&**",
"**&y&=*tttttttttttttttttttttttttttttttttttttttttttttttttt*=&y&**",
"**&y&=*tttttttttttttttttttttttttttttttttttttttttttttttttt*=&y&**",
"**&y&=*tttttttttttttttttttttttttttttttttttttttttttttttttt*=&y&**",
"**&y&=*tttttttttttttttttttttttttttttttttttttttttttttttttt*=&y&**",
"**&y&=*tttttttttttttttttttttttttttttttttttttttttttttttttt*=&y&**",
"**&y&=*tttttttttttttttttttttttttttttttttttttttttttttttttt*=&y&**",
"**&y&=*tttttttttttttttttttttttttttttttttttttttttttttttttt*=&y&**",
">#&y=&-qywstetrettttttttttttttttttttttttttttttttertetswyq-&=y&#>",
"#**u#**sei4fyyauttttttttttttttttttttttttttttttttuayyf4ies**#u**#",
";;=t*-;8tttqf4sqttttttttttttttttttttttttttttttttqs4fqttt8;-*t=;;",
";+@i*-$swtpyqiyittttttttttttttttttttttttttttttttiyiqyptws$-*i@+;",
">O<6*:Otuywreif8tttttttttttttttttttttttttttttttt8fierwyutO:*6<O>",
"X3*g***-&*&utr4jttttttttttttttttttttttttttttttttj4rtu&*&-***g*3X",
"<#+;.*:$%,&reip0tttttttttttttttttttttttttttttttt0pier&,%$:*.;+#<",
"#,=*>;&*;+=pwrwuttttttttttttttttttttttttttttttttuwrwp=+;*&;>*=,#",
"=&**$;$*;o;uwiyrttttttttttttttttttttttttttttttttryiwu;o;*$;$**&=",
"@:-yttq,=,%$%,O-********************************-O,%$%,=,qtty-:@",
"&:oqiuq@X=*>*%=:********************************:=%*>*=X@quiqo:&",
"*-*sp8h@,-&O>$&*&&&&&&&&&&&&&&&&&&&&&&&&&&&&&&&&*&$>O&-,@h8ps*-*",
"&$=8ri9:&7rs0drtyyyyyyyyyyyyyyyyyyyyyyyyyyyyyyyytrd0sr7&:9ir8=$&",
"-&%3@-:$<*,*$;-%********************************%-;$*,*<$:-@3%&-",
";#>o>$;=+;+=;%X=********************************=X%;=+;+=;$>o>#;",
"%,$&;=$*:#:&$*1@********************************@1*$&:#:*$=;&$,%"
};
